<mxfile host="app.diagrams.net" agent="Mozilla/5.0 (Macintosh; Intel Mac OS X 10_15_7) AppleWebKit/537.36 (KHTML, like Gecko) Chrome/127.0.0.0 Safari/537.36" version="24.7.7">
  <diagram name="Page-1" id="vLwm-aiOjX6jgXFGEpWF">
    <mxGraphModel dx="2561" dy="2377" grid="1" gridSize="10" guides="1" tooltips="1" connect="1" arrows="1" fold="1" page="1" pageScale="1" pageWidth="850" pageHeight="1100" math="0" shadow="0">
      <root>
        <mxCell id="0" />
        <mxCell id="1" parent="0" />
        <mxCell id="9WTIjL7cnND9wMEUeXyy-78" value="(c) shingaridavesh@gmail.com" style="text;html=1;align=center;verticalAlign=middle;whiteSpace=wrap;rounded=0;fontSize=36;fontColor=#f2eeee;rotation=-15;" vertex="1" parent="1">
          <mxGeometry x="60" y="-40" width="870" height="30" as="geometry" />
        </mxCell>
        <mxCell id="9WTIjL7cnND9wMEUeXyy-79" value="(c) shingaridavesh@gmail.com" style="text;html=1;align=center;verticalAlign=middle;whiteSpace=wrap;rounded=0;fontSize=36;fontColor=#f2eeee;rotation=-15;" vertex="1" parent="1">
          <mxGeometry x="60" y="340" width="870" height="30" as="geometry" />
        </mxCell>
        <mxCell id="9WTIjL7cnND9wMEUeXyy-6" style="edgeStyle=orthogonalEdgeStyle;rounded=0;orthogonalLoop=1;jettySize=auto;html=1;entryX=0.5;entryY=0;entryDx=0;entryDy=0;strokeWidth=2;strokeColor=#1d7605;" edge="1" parent="1" target="9WTIjL7cnND9wMEUeXyy-2">
          <mxGeometry relative="1" as="geometry">
            <mxPoint x="160" y="400" as="sourcePoint" />
            <Array as="points">
              <mxPoint x="160" y="400" />
              <mxPoint x="40" y="400" />
            </Array>
          </mxGeometry>
        </mxCell>
        <mxCell id="9WTIjL7cnND9wMEUeXyy-7" style="edgeStyle=orthogonalEdgeStyle;rounded=0;orthogonalLoop=1;jettySize=auto;html=1;strokeWidth=2;strokeColor=#1d7605;" edge="1" parent="1" target="9WTIjL7cnND9wMEUeXyy-3">
          <mxGeometry relative="1" as="geometry">
            <mxPoint x="160" y="400" as="sourcePoint" />
          </mxGeometry>
        </mxCell>
        <mxCell id="9WTIjL7cnND9wMEUeXyy-8" style="edgeStyle=orthogonalEdgeStyle;rounded=0;orthogonalLoop=1;jettySize=auto;html=1;entryX=0.5;entryY=0;entryDx=0;entryDy=0;strokeWidth=2;strokeColor=#1d7605;" edge="1" parent="1" target="9WTIjL7cnND9wMEUeXyy-4">
          <mxGeometry relative="1" as="geometry">
            <mxPoint x="280" y="400" as="sourcePoint" />
          </mxGeometry>
        </mxCell>
        <mxCell id="9WTIjL7cnND9wMEUeXyy-9" style="edgeStyle=orthogonalEdgeStyle;rounded=0;orthogonalLoop=1;jettySize=auto;html=1;strokeWidth=2;strokeColor=#1d7605;" edge="1" parent="1" target="9WTIjL7cnND9wMEUeXyy-5">
          <mxGeometry relative="1" as="geometry">
            <mxPoint x="280" y="400" as="sourcePoint" />
          </mxGeometry>
        </mxCell>
        <mxCell id="9WTIjL7cnND9wMEUeXyy-11" style="edgeStyle=orthogonalEdgeStyle;rounded=0;orthogonalLoop=1;jettySize=auto;html=1;strokeWidth=2;strokeColor=#1d7605;" edge="1" parent="1" source="9WTIjL7cnND9wMEUeXyy-1">
          <mxGeometry relative="1" as="geometry">
            <mxPoint x="220" y="360" as="targetPoint" />
          </mxGeometry>
        </mxCell>
        <mxCell id="9WTIjL7cnND9wMEUeXyy-1" value="Memory Controller + PHY" style="rounded=0;whiteSpace=wrap;html=1;fontSize=18;strokeWidth=3;" vertex="1" parent="1">
          <mxGeometry y="200" width="440" height="80" as="geometry" />
        </mxCell>
        <mxCell id="9WTIjL7cnND9wMEUeXyy-2" value="DRAM Chip 0" style="rounded=0;whiteSpace=wrap;html=1;fontSize=18;strokeWidth=3;" vertex="1" parent="1">
          <mxGeometry y="480" width="80" height="80" as="geometry" />
        </mxCell>
        <mxCell id="9WTIjL7cnND9wMEUeXyy-3" value="DRAM Chip 1" style="rounded=0;whiteSpace=wrap;html=1;fontSize=18;strokeWidth=3;" vertex="1" parent="1">
          <mxGeometry x="120" y="480" width="80" height="80" as="geometry" />
        </mxCell>
        <mxCell id="9WTIjL7cnND9wMEUeXyy-4" value="DRAM Chip 2" style="rounded=0;whiteSpace=wrap;html=1;fontSize=18;strokeWidth=3;" vertex="1" parent="1">
          <mxGeometry x="240" y="480" width="80" height="80" as="geometry" />
        </mxCell>
        <mxCell id="9WTIjL7cnND9wMEUeXyy-5" value="DRAM Chip 3" style="rounded=0;whiteSpace=wrap;html=1;fontSize=18;strokeWidth=3;" vertex="1" parent="1">
          <mxGeometry x="360" y="480" width="80" height="80" as="geometry" />
        </mxCell>
        <mxCell id="9WTIjL7cnND9wMEUeXyy-10" value="" style="endArrow=none;html=1;rounded=0;strokeWidth=2;strokeColor=#1d7605;" edge="1" parent="1">
          <mxGeometry width="50" height="50" relative="1" as="geometry">
            <mxPoint x="100" y="360" as="sourcePoint" />
            <mxPoint x="340" y="360" as="targetPoint" />
          </mxGeometry>
        </mxCell>
        <mxCell id="9WTIjL7cnND9wMEUeXyy-12" value="" style="endArrow=none;html=1;rounded=0;strokeWidth=2;strokeColor=#1d7605;" edge="1" parent="1">
          <mxGeometry width="50" height="50" relative="1" as="geometry">
            <mxPoint x="100" y="400" as="sourcePoint" />
            <mxPoint x="100" y="360" as="targetPoint" />
          </mxGeometry>
        </mxCell>
        <mxCell id="9WTIjL7cnND9wMEUeXyy-13" value="" style="endArrow=none;html=1;rounded=0;strokeWidth=2;strokeColor=#1d7605;" edge="1" parent="1">
          <mxGeometry width="50" height="50" relative="1" as="geometry">
            <mxPoint x="340" y="400" as="sourcePoint" />
            <mxPoint x="340" y="360" as="targetPoint" />
          </mxGeometry>
        </mxCell>
        <mxCell id="9WTIjL7cnND9wMEUeXyy-14" style="edgeStyle=orthogonalEdgeStyle;rounded=0;orthogonalLoop=1;jettySize=auto;html=1;strokeWidth=2;entryX=0.25;entryY=0;entryDx=0;entryDy=0;strokeColor=#f29c07;" edge="1" parent="1" target="9WTIjL7cnND9wMEUeXyy-2">
          <mxGeometry relative="1" as="geometry">
            <mxPoint x="20" y="360" as="targetPoint" />
            <mxPoint x="20" y="280" as="sourcePoint" />
          </mxGeometry>
        </mxCell>
        <mxCell id="9WTIjL7cnND9wMEUeXyy-15" style="edgeStyle=orthogonalEdgeStyle;rounded=0;orthogonalLoop=1;jettySize=auto;html=1;strokeWidth=2;entryX=0.25;entryY=0;entryDx=0;entryDy=0;strokeColor=#f29c07;" edge="1" parent="1">
          <mxGeometry relative="1" as="geometry">
            <mxPoint x="140" y="480" as="targetPoint" />
            <mxPoint x="140" y="280" as="sourcePoint" />
          </mxGeometry>
        </mxCell>
        <mxCell id="9WTIjL7cnND9wMEUeXyy-16" style="edgeStyle=orthogonalEdgeStyle;rounded=0;orthogonalLoop=1;jettySize=auto;html=1;strokeWidth=2;entryX=0.25;entryY=0;entryDx=0;entryDy=0;strokeColor=#f29c07;" edge="1" parent="1">
          <mxGeometry relative="1" as="geometry">
            <mxPoint x="300" y="480" as="targetPoint" />
            <mxPoint x="300" y="280" as="sourcePoint" />
          </mxGeometry>
        </mxCell>
        <mxCell id="9WTIjL7cnND9wMEUeXyy-17" style="edgeStyle=orthogonalEdgeStyle;rounded=0;orthogonalLoop=1;jettySize=auto;html=1;strokeWidth=2;entryX=0.25;entryY=0;entryDx=0;entryDy=0;strokeColor=#f29c07;" edge="1" parent="1">
          <mxGeometry relative="1" as="geometry">
            <mxPoint x="424" y="480" as="targetPoint" />
            <mxPoint x="424" y="280" as="sourcePoint" />
          </mxGeometry>
        </mxCell>
        <mxCell id="9WTIjL7cnND9wMEUeXyy-18" style="edgeStyle=orthogonalEdgeStyle;rounded=0;orthogonalLoop=1;jettySize=auto;html=1;entryX=0.5;entryY=0;entryDx=0;entryDy=0;strokeWidth=2;strokeColor=#1d7605;" edge="1" parent="1" target="9WTIjL7cnND9wMEUeXyy-24">
          <mxGeometry relative="1" as="geometry">
            <mxPoint x="760" y="400" as="sourcePoint" />
            <Array as="points">
              <mxPoint x="760" y="400" />
              <mxPoint x="640" y="400" />
            </Array>
          </mxGeometry>
        </mxCell>
        <mxCell id="9WTIjL7cnND9wMEUeXyy-19" style="edgeStyle=orthogonalEdgeStyle;rounded=0;orthogonalLoop=1;jettySize=auto;html=1;strokeWidth=2;strokeColor=#1d7605;" edge="1" parent="1" target="9WTIjL7cnND9wMEUeXyy-25">
          <mxGeometry relative="1" as="geometry">
            <mxPoint x="760" y="400" as="sourcePoint" />
          </mxGeometry>
        </mxCell>
        <mxCell id="9WTIjL7cnND9wMEUeXyy-20" style="edgeStyle=orthogonalEdgeStyle;rounded=0;orthogonalLoop=1;jettySize=auto;html=1;entryX=0.5;entryY=0;entryDx=0;entryDy=0;strokeWidth=2;strokeColor=#1d7605;" edge="1" parent="1" target="9WTIjL7cnND9wMEUeXyy-26">
          <mxGeometry relative="1" as="geometry">
            <mxPoint x="880" y="400" as="sourcePoint" />
          </mxGeometry>
        </mxCell>
        <mxCell id="9WTIjL7cnND9wMEUeXyy-21" style="edgeStyle=orthogonalEdgeStyle;rounded=0;orthogonalLoop=1;jettySize=auto;html=1;strokeWidth=2;strokeColor=#1d7605;" edge="1" parent="1" target="9WTIjL7cnND9wMEUeXyy-27">
          <mxGeometry relative="1" as="geometry">
            <mxPoint x="880" y="400" as="sourcePoint" />
          </mxGeometry>
        </mxCell>
        <mxCell id="9WTIjL7cnND9wMEUeXyy-23" value="Memory Controller + PHY" style="rounded=0;whiteSpace=wrap;html=1;fontSize=18;strokeWidth=3;" vertex="1" parent="1">
          <mxGeometry x="600" y="200" width="440" height="80" as="geometry" />
        </mxCell>
        <mxCell id="9WTIjL7cnND9wMEUeXyy-24" value="DRAM Chip 0" style="rounded=0;whiteSpace=wrap;html=1;fontSize=18;strokeWidth=3;" vertex="1" parent="1">
          <mxGeometry x="600" y="480" width="80" height="80" as="geometry" />
        </mxCell>
        <mxCell id="9WTIjL7cnND9wMEUeXyy-25" value="DRAM Chip 1" style="rounded=0;whiteSpace=wrap;html=1;fontSize=18;strokeWidth=3;" vertex="1" parent="1">
          <mxGeometry x="720" y="480" width="80" height="80" as="geometry" />
        </mxCell>
        <mxCell id="9WTIjL7cnND9wMEUeXyy-26" value="DRAM Chip 2" style="rounded=0;whiteSpace=wrap;html=1;fontSize=18;strokeWidth=3;" vertex="1" parent="1">
          <mxGeometry x="840" y="480" width="80" height="80" as="geometry" />
        </mxCell>
        <mxCell id="9WTIjL7cnND9wMEUeXyy-27" value="DRAM Chip 3" style="rounded=0;whiteSpace=wrap;html=1;fontSize=18;strokeWidth=3;" vertex="1" parent="1">
          <mxGeometry x="960" y="480" width="80" height="80" as="geometry" />
        </mxCell>
        <mxCell id="9WTIjL7cnND9wMEUeXyy-28" value="" style="endArrow=none;html=1;rounded=0;strokeWidth=2;strokeColor=#1d7605;" edge="1" parent="1">
          <mxGeometry width="50" height="50" relative="1" as="geometry">
            <mxPoint x="560" y="400" as="sourcePoint" />
            <mxPoint x="950" y="400" as="targetPoint" />
          </mxGeometry>
        </mxCell>
        <mxCell id="9WTIjL7cnND9wMEUeXyy-29" value="" style="endArrow=none;html=1;rounded=0;strokeWidth=2;strokeColor=#1d7605;exitX=0;exitY=0.5;exitDx=0;exitDy=0;" edge="1" parent="1" source="9WTIjL7cnND9wMEUeXyy-23">
          <mxGeometry width="50" height="50" relative="1" as="geometry">
            <mxPoint x="700" y="400" as="sourcePoint" />
            <mxPoint x="560" y="240" as="targetPoint" />
          </mxGeometry>
        </mxCell>
        <mxCell id="9WTIjL7cnND9wMEUeXyy-31" style="edgeStyle=orthogonalEdgeStyle;rounded=0;orthogonalLoop=1;jettySize=auto;html=1;strokeWidth=2;entryX=0.25;entryY=0;entryDx=0;entryDy=0;strokeColor=#f29c07;" edge="1" parent="1" target="9WTIjL7cnND9wMEUeXyy-24">
          <mxGeometry relative="1" as="geometry">
            <mxPoint x="620" y="360" as="targetPoint" />
            <mxPoint x="620" y="280" as="sourcePoint" />
          </mxGeometry>
        </mxCell>
        <mxCell id="9WTIjL7cnND9wMEUeXyy-32" style="edgeStyle=orthogonalEdgeStyle;rounded=0;orthogonalLoop=1;jettySize=auto;html=1;strokeWidth=2;entryX=0.25;entryY=0;entryDx=0;entryDy=0;strokeColor=#f29c07;" edge="1" parent="1">
          <mxGeometry relative="1" as="geometry">
            <mxPoint x="740" y="480" as="targetPoint" />
            <mxPoint x="740" y="280" as="sourcePoint" />
          </mxGeometry>
        </mxCell>
        <mxCell id="9WTIjL7cnND9wMEUeXyy-33" style="edgeStyle=orthogonalEdgeStyle;rounded=0;orthogonalLoop=1;jettySize=auto;html=1;strokeWidth=2;entryX=0.25;entryY=0;entryDx=0;entryDy=0;strokeColor=#f29c07;" edge="1" parent="1">
          <mxGeometry relative="1" as="geometry">
            <mxPoint x="900" y="480" as="targetPoint" />
            <mxPoint x="900" y="280" as="sourcePoint" />
          </mxGeometry>
        </mxCell>
        <mxCell id="9WTIjL7cnND9wMEUeXyy-34" style="edgeStyle=orthogonalEdgeStyle;rounded=0;orthogonalLoop=1;jettySize=auto;html=1;strokeWidth=2;entryX=0.25;entryY=0;entryDx=0;entryDy=0;strokeColor=#f29c07;" edge="1" parent="1">
          <mxGeometry relative="1" as="geometry">
            <mxPoint x="1024" y="480" as="targetPoint" />
            <mxPoint x="1024" y="280" as="sourcePoint" />
          </mxGeometry>
        </mxCell>
        <mxCell id="9WTIjL7cnND9wMEUeXyy-35" value="" style="endArrow=none;html=1;rounded=0;strokeWidth=2;strokeColor=#1d7605;" edge="1" parent="1">
          <mxGeometry width="50" height="50" relative="1" as="geometry">
            <mxPoint x="560" y="240" as="sourcePoint" />
            <mxPoint x="560" y="400" as="targetPoint" />
          </mxGeometry>
        </mxCell>
        <mxCell id="9WTIjL7cnND9wMEUeXyy-36" value="" style="endArrow=none;html=1;rounded=0;strokeWidth=7;strokeColor=#1d7605;" edge="1" parent="1">
          <mxGeometry width="50" height="50" relative="1" as="geometry">
            <mxPoint x="400" y="660" as="sourcePoint" />
            <mxPoint x="520" y="660" as="targetPoint" />
          </mxGeometry>
        </mxCell>
        <mxCell id="9WTIjL7cnND9wMEUeXyy-37" value="" style="endArrow=none;html=1;rounded=0;strokeWidth=7;strokeColor=#f29c08;" edge="1" parent="1">
          <mxGeometry width="50" height="50" relative="1" as="geometry">
            <mxPoint x="400" y="700" as="sourcePoint" />
            <mxPoint x="520" y="700" as="targetPoint" />
          </mxGeometry>
        </mxCell>
        <mxCell id="9WTIjL7cnND9wMEUeXyy-38" value="Clock/Command/Address" style="text;html=1;align=center;verticalAlign=middle;whiteSpace=wrap;rounded=0;fontSize=15;" vertex="1" parent="1">
          <mxGeometry x="530" y="640" width="170" height="40" as="geometry" />
        </mxCell>
        <mxCell id="9WTIjL7cnND9wMEUeXyy-40" value="Data Strobe" style="text;html=1;align=center;verticalAlign=middle;whiteSpace=wrap;rounded=0;fontSize=15;" vertex="1" parent="1">
          <mxGeometry x="530" y="680" width="90" height="40" as="geometry" />
        </mxCell>
        <mxCell id="9WTIjL7cnND9wMEUeXyy-41" value="T Topology - 4 Devices" style="text;html=1;align=center;verticalAlign=middle;whiteSpace=wrap;rounded=0;fontSize=18;fontStyle=1" vertex="1" parent="1">
          <mxGeometry y="570" width="440" height="40" as="geometry" />
        </mxCell>
        <mxCell id="9WTIjL7cnND9wMEUeXyy-42" value="Fly-By Topology - 4 Devices" style="text;html=1;align=center;verticalAlign=middle;whiteSpace=wrap;rounded=0;fontSize=18;fontStyle=1" vertex="1" parent="1">
          <mxGeometry x="600" y="570" width="440" height="40" as="geometry" />
        </mxCell>
        <mxCell id="9WTIjL7cnND9wMEUeXyy-44" style="edgeStyle=orthogonalEdgeStyle;rounded=0;orthogonalLoop=1;jettySize=auto;html=1;strokeWidth=2;strokeColor=#1d7605;" edge="1" parent="1" target="9WTIjL7cnND9wMEUeXyy-50">
          <mxGeometry relative="1" as="geometry">
            <mxPoint x="160" y="-80" as="sourcePoint" />
          </mxGeometry>
        </mxCell>
        <mxCell id="9WTIjL7cnND9wMEUeXyy-45" style="edgeStyle=orthogonalEdgeStyle;rounded=0;orthogonalLoop=1;jettySize=auto;html=1;entryX=0.5;entryY=0;entryDx=0;entryDy=0;strokeWidth=2;strokeColor=#1d7605;" edge="1" parent="1" target="9WTIjL7cnND9wMEUeXyy-51">
          <mxGeometry relative="1" as="geometry">
            <mxPoint x="280" y="-80" as="sourcePoint" />
          </mxGeometry>
        </mxCell>
        <mxCell id="9WTIjL7cnND9wMEUeXyy-47" style="edgeStyle=orthogonalEdgeStyle;rounded=0;orthogonalLoop=1;jettySize=auto;html=1;strokeWidth=2;strokeColor=#1d7605;" edge="1" parent="1" source="9WTIjL7cnND9wMEUeXyy-48">
          <mxGeometry relative="1" as="geometry">
            <mxPoint x="220" y="-80" as="targetPoint" />
          </mxGeometry>
        </mxCell>
        <mxCell id="9WTIjL7cnND9wMEUeXyy-48" value="Memory Controller + PHY" style="rounded=0;whiteSpace=wrap;html=1;fontSize=18;strokeWidth=3;" vertex="1" parent="1">
          <mxGeometry y="-240" width="440" height="80" as="geometry" />
        </mxCell>
        <mxCell id="9WTIjL7cnND9wMEUeXyy-50" value="DRAM Chip 0" style="rounded=0;whiteSpace=wrap;html=1;fontSize=18;strokeWidth=3;" vertex="1" parent="1">
          <mxGeometry y="50" width="80" height="80" as="geometry" />
        </mxCell>
        <mxCell id="9WTIjL7cnND9wMEUeXyy-51" value="DRAM Chip 1" style="rounded=0;whiteSpace=wrap;html=1;fontSize=18;strokeWidth=3;" vertex="1" parent="1">
          <mxGeometry x="360" y="40" width="80" height="80" as="geometry" />
        </mxCell>
        <mxCell id="9WTIjL7cnND9wMEUeXyy-53" value="" style="endArrow=none;html=1;rounded=0;strokeWidth=2;strokeColor=#1d7605;" edge="1" parent="1">
          <mxGeometry width="50" height="50" relative="1" as="geometry">
            <mxPoint x="160" y="-80" as="sourcePoint" />
            <mxPoint x="280" y="-80" as="targetPoint" />
          </mxGeometry>
        </mxCell>
        <mxCell id="9WTIjL7cnND9wMEUeXyy-57" style="edgeStyle=orthogonalEdgeStyle;rounded=0;orthogonalLoop=1;jettySize=auto;html=1;strokeWidth=2;entryX=0.25;entryY=0;entryDx=0;entryDy=0;strokeColor=#f29c07;" edge="1" parent="1">
          <mxGeometry relative="1" as="geometry">
            <mxPoint x="60" y="50" as="targetPoint" />
            <mxPoint x="60" y="-160" as="sourcePoint" />
          </mxGeometry>
        </mxCell>
        <mxCell id="9WTIjL7cnND9wMEUeXyy-58" style="edgeStyle=orthogonalEdgeStyle;rounded=0;orthogonalLoop=1;jettySize=auto;html=1;strokeWidth=2;entryX=0.25;entryY=0;entryDx=0;entryDy=0;strokeColor=#f29c07;" edge="1" parent="1">
          <mxGeometry relative="1" as="geometry">
            <mxPoint x="380" y="40" as="targetPoint" />
            <mxPoint x="380" y="-160" as="sourcePoint" />
          </mxGeometry>
        </mxCell>
        <mxCell id="9WTIjL7cnND9wMEUeXyy-61" style="edgeStyle=orthogonalEdgeStyle;rounded=0;orthogonalLoop=1;jettySize=auto;html=1;strokeWidth=2;strokeColor=#1d7605;" edge="1" parent="1" target="9WTIjL7cnND9wMEUeXyy-66">
          <mxGeometry relative="1" as="geometry">
            <mxPoint x="880" y="-40" as="sourcePoint" />
          </mxGeometry>
        </mxCell>
        <mxCell id="9WTIjL7cnND9wMEUeXyy-62" style="edgeStyle=orthogonalEdgeStyle;rounded=0;orthogonalLoop=1;jettySize=auto;html=1;entryX=0.5;entryY=0;entryDx=0;entryDy=0;strokeWidth=2;strokeColor=#1d7605;" edge="1" parent="1" target="9WTIjL7cnND9wMEUeXyy-67">
          <mxGeometry relative="1" as="geometry">
            <mxPoint x="880" y="-40" as="sourcePoint" />
          </mxGeometry>
        </mxCell>
        <mxCell id="9WTIjL7cnND9wMEUeXyy-64" value="Memory Controller + PHY" style="rounded=0;whiteSpace=wrap;html=1;fontSize=18;strokeWidth=3;" vertex="1" parent="1">
          <mxGeometry x="600" y="-240" width="440" height="80" as="geometry" />
        </mxCell>
        <mxCell id="9WTIjL7cnND9wMEUeXyy-66" value="DRAM Chip 0" style="rounded=0;whiteSpace=wrap;html=1;fontSize=18;strokeWidth=3;" vertex="1" parent="1">
          <mxGeometry x="600" y="40" width="80" height="80" as="geometry" />
        </mxCell>
        <mxCell id="9WTIjL7cnND9wMEUeXyy-67" value="DRAM Chip 1" style="rounded=0;whiteSpace=wrap;html=1;fontSize=18;strokeWidth=3;" vertex="1" parent="1">
          <mxGeometry x="960" y="40" width="80" height="80" as="geometry" />
        </mxCell>
        <mxCell id="9WTIjL7cnND9wMEUeXyy-69" value="" style="endArrow=none;html=1;rounded=0;strokeWidth=2;strokeColor=#1d7605;" edge="1" parent="1">
          <mxGeometry width="50" height="50" relative="1" as="geometry">
            <mxPoint x="560" y="-40" as="sourcePoint" />
            <mxPoint x="640" y="-40" as="targetPoint" />
          </mxGeometry>
        </mxCell>
        <mxCell id="9WTIjL7cnND9wMEUeXyy-70" value="" style="endArrow=none;html=1;rounded=0;strokeWidth=2;strokeColor=#1d7605;exitX=0;exitY=0.5;exitDx=0;exitDy=0;" edge="1" parent="1" source="9WTIjL7cnND9wMEUeXyy-64">
          <mxGeometry width="50" height="50" relative="1" as="geometry">
            <mxPoint x="700" y="-40" as="sourcePoint" />
            <mxPoint x="560" y="-200" as="targetPoint" />
          </mxGeometry>
        </mxCell>
        <mxCell id="9WTIjL7cnND9wMEUeXyy-72" style="edgeStyle=orthogonalEdgeStyle;rounded=0;orthogonalLoop=1;jettySize=auto;html=1;strokeWidth=2;entryX=0.25;entryY=0;entryDx=0;entryDy=0;strokeColor=#f29c07;" edge="1" parent="1">
          <mxGeometry relative="1" as="geometry">
            <mxPoint x="660" y="40" as="targetPoint" />
            <mxPoint x="660" y="-160" as="sourcePoint" />
          </mxGeometry>
        </mxCell>
        <mxCell id="9WTIjL7cnND9wMEUeXyy-73" style="edgeStyle=orthogonalEdgeStyle;rounded=0;orthogonalLoop=1;jettySize=auto;html=1;strokeWidth=2;entryX=0.25;entryY=0;entryDx=0;entryDy=0;strokeColor=#f29c07;" edge="1" parent="1">
          <mxGeometry relative="1" as="geometry">
            <mxPoint x="980" y="40" as="targetPoint" />
            <mxPoint x="980" y="-160" as="sourcePoint" />
          </mxGeometry>
        </mxCell>
        <mxCell id="9WTIjL7cnND9wMEUeXyy-75" value="" style="endArrow=none;html=1;rounded=0;strokeWidth=2;strokeColor=#1d7605;" edge="1" parent="1">
          <mxGeometry width="50" height="50" relative="1" as="geometry">
            <mxPoint x="560" y="-200" as="sourcePoint" />
            <mxPoint x="560" y="-40" as="targetPoint" />
          </mxGeometry>
        </mxCell>
        <mxCell id="9WTIjL7cnND9wMEUeXyy-76" value="T Topology - 2 Devices" style="text;html=1;align=center;verticalAlign=middle;whiteSpace=wrap;rounded=0;fontSize=18;fontStyle=1" vertex="1" parent="1">
          <mxGeometry y="130" width="440" height="40" as="geometry" />
        </mxCell>
        <mxCell id="9WTIjL7cnND9wMEUeXyy-77" value="Fly-By Topology - 2 Devices" style="text;html=1;align=center;verticalAlign=middle;whiteSpace=wrap;rounded=0;fontSize=18;fontStyle=1" vertex="1" parent="1">
          <mxGeometry x="600" y="130" width="440" height="40" as="geometry" />
        </mxCell>
      </root>
    </mxGraphModel>
  </diagram>
</mxfile>
